<svg width="128" height="128" viewBox="0 0 128 128" fill="none" xmlns="http://www.w3.org/2000/svg">
  <!-- Top-Left Arrow: Orange -->
  <path d="M53.3333 21.3333C50.3878 21.3333 48.0000 23.7212 48.0000 26.6667V40.4575L14.4379 6.8954C12.3551 4.8126 8.9782 4.8126 6.8954 6.8954C4.8126 8.9782 4.8126 12.3551 6.8954 14.4379L40.4575 48.0000H26.6667C23.7212 48.0000 21.3333 50.3878 21.3333 53.3333C21.3333 56.2789 23.7212 58.6667 26.6667 58.6667H48.0000C53.8912 58.6667 58.6667 53.8912 58.6667 48.0000V26.6667C58.6667 23.7212 56.2789 21.3333 53.3333 21.3333Z" fill="#FF7A00"/>
  
  <!-- Bottom-Left Arrow: Red -->
  <path d="M53.3333 106.6667C50.3878 106.6667 48.0000 104.2789 48.0000 101.3333V87.5424L14.4379 121.1045C12.3551 123.1872 8.9782 123.1872 6.8954 121.1045C4.8126 119.0219 4.8126 115.6448 6.8954 113.5621L40.4575 80.0000H26.6667C23.7212 80.0000 21.3333 77.6123 21.3333 74.6667C21.3333 71.7211 23.7212 69.3333 26.6667 69.3333H48.0000C53.8912 69.3333 58.6667 74.1088 58.6667 80.0000V101.3333C58.6667 104.2789 56.2789 106.6667 53.3333 106.6667Z" fill="#EF4444"/>
  
  <!-- Top-Right Arrow: Tiffany Blue -->
  <path d="M80.0000 26.6667C80.0000 23.7212 77.6123 21.3333 74.6667 21.3333C71.7211 21.3333 69.3333 23.7212 69.3333 26.6667V48.0000C69.3333 53.8912 74.1088 58.6667 80.0000 58.6667H101.3333C104.2789 58.6667 106.6667 56.2789 106.6667 53.3333C106.6667 50.3878 104.2789 48.0000 101.3333 48.0000H87.5424L121.1045 14.4379C123.1872 12.3551 123.1872 8.9782 121.1045 6.8954C119.0219 4.8126 115.6448 4.8126 113.5621 6.8954L80.0000 40.4575V26.6667Z" fill="#00B2A9"/>
  
  <!-- Bottom-Right Arrow: Green -->
  <path d="M74.6667 106.6667C77.6123 106.6667 80.0000 104.2789 80.0000 101.3333V87.5424L113.5621 121.1045C115.6448 123.1872 119.0219 123.1872 121.1045 121.1045C123.1872 119.0219 123.1872 115.6448 121.1045 113.5621L87.5424 80.0000H101.3333C104.2789 80.0000 106.6667 77.6123 106.6667 74.6667C106.6667 71.7211 104.2789 69.3333 101.3333 69.3333H80.0000C74.1088 69.3333 69.3333 74.1088 69.3333 80.0000V101.3333C69.3333 104.2789 71.7211 106.6667 74.6667 106.6667Z" fill="#10B981"/>
</svg>